# xmcd
# Copyright (C) 1995-1998 Ti Kan
#
# Track frame offsets:
#       150
#       13663
#       26996
#       41656
#       55912
#       70769
#       85946
#       99632
#       113271
#       128291
#       144037
#
# Disc length: 2130 seconds
#
# Revision: 0
# Processed by: cddbd v1.5.2PL0 Copyright (c) Steve Scherf et al.
# Submitted via: CD-Transfer v1.0
#
DISCID=8208500b
DTITLE=Andy Arnold - 
DYEAR=1900
DGENRE=
TTITLE0=So Ein Wahnsinnsgefühl
TTITLE1=Die Sterne Sie Funkeln
TTITLE2=Eigene Wege
TTITLE3=Felicita
TTITLE4=Prenzessin Aus Eis
TTITLE5=Eine Träne Werd Ich Für Dich Weinen
TTITLE6=Nur Ein Blick Zu Viel
TTITLE7=Scha La La La  Amore Mio
TTITLE8=Schmetterlinge Im Bauch
TTITLE9=Ich Lass Dir Meine Träume Da
TTITLE10=Goodbye My Love, Goodbye
EXTD=
EXTT0=
EXTT1=
EXTT2=
EXTT3=
EXTT4=
EXTT5=
EXTT6=
EXTT7=
EXTT8=
EXTT9=
EXTT10=
PLAYORDER=
